<svg width="81" height="67" viewBox="0 0 81 67" fill="none" xmlns="http://www.w3.org/2000/svg">
<path d="M54.4442 35.2933C56.4048 34.3488 58.411 33.5436 60.4627 32.8776L60.3588 47.3929C53.432 53.2111 48.2219 59.6683 44.7286 66.7645L36.4939 66.8235C32.9164 59.6849 27.7518 53.3019 21 47.6747L21.1029 33.299C23.1453 33.9357 25.1867 34.7119 27.227 35.6277C29.1737 36.6373 31.1655 37.8325 33.2026 39.2136L33.5837 0.951134L48.5493 0.951141L48.2771 38.9661C50.3342 37.5557 52.3898 36.3315 54.4442 35.2933Z" fill="url(#paint0_linear_189_52)"/>
<rect width="81" height="29" transform="matrix(1 0 0 -1 0 29)" fill="url(#paint1_linear_189_52)"/>
<defs>
<linearGradient id="paint0_linear_189_52" x1="41.6424" y1="58.5369" x2="38.7696" y2="3.53265" gradientUnits="userSpaceOnUse">
<stop offset="0.153846" stop-color="#839B1A"/>
<stop offset="1" stop-color="#6A7D13" stop-opacity="0.5"/>
</linearGradient>
<linearGradient id="paint1_linear_189_52" x1="40.5" y1="29" x2="40.5" y2="2.39047e-08" gradientUnits="userSpaceOnUse">
<stop offset="0.1" stop-color="#F2F0EF"/>
<stop offset="1" stop-color="#F2F0EF" stop-opacity="0"/>
</linearGradient>
</defs>
</svg>
